<svg xmlns="http://www.w3.org/2000/svg" width="16" height="16" viewBox="0 0 16 16">
  <metadata><?xpacket begin="﻿" id="W5M0MpCehiHzreSzNTczkc9d"?>
<x:xmpmeta xmlns:x="adobe:ns:meta/" x:xmptk="Adobe XMP Core 5.6-c138 79.159824, 2016/09/14-01:09:01        ">
   <rdf:RDF xmlns:rdf="http://www.w3.org/1999/02/22-rdf-syntax-ns#">
      <rdf:Description rdf:about=""/>
   </rdf:RDF>
</x:xmpmeta>
                                                                                                    
                                                                                                    
                                                                                                    
                                                                                                    
                                                                                                    
                                                                                                    
                                                                                                    
                                                                                                    
                                                                                                    
                                                                                                    
                                                                                                    
                                                                                                    
                                                                                                    
                                                                                                    
                                                                                                    
                                                                                                    
                                                                                                    
                                                                                                    
                                                                                                    
                                                                                                    
                           
<?xpacket end="w"?></metadata>
<defs>
    <style>
      .cls-1 {
        fill: #232323;
        fill-rule: evenodd;
      }
    </style>
  </defs>
  <path class="cls-1" d="M1146,124.5a2,2,0,1,0,2,2A2,2,0,0,0,1146,124.5Zm6,0a2,2,0,1,0,2,2A2,2,0,0,0,1152,124.5Zm3-10h-10.93l-0.27-1a1.066,1.066,0,0,0-1.03-1H1141a1,1,0,0,0,0,2h1l2,7.2a1.04,1.04,0,0,0,1,.8h8a1.043,1.043,0,0,0,1-.781l1.71-5.219a3.948,3.948,0,0,0,.29-1A1,1,0,0,0,1155,114.5Zm-2.71,6h-6.55l-1.11-4h8.98Z" transform="translate(-1140 -112.5)"/>
</svg>
