<svg xmlns="http://www.w3.org/2000/svg" width="282.246" height="267" viewBox="0 0 282.246 267">
  <metadata><?xpacket begin="﻿" id="W5M0MpCehiHzreSzNTczkc9d"?>
<x:xmpmeta xmlns:x="adobe:ns:meta/" x:xmptk="Adobe XMP Core 5.6-c138 79.159824, 2016/09/14-01:09:01        ">
   <rdf:RDF xmlns:rdf="http://www.w3.org/1999/02/22-rdf-syntax-ns#">
      <rdf:Description rdf:about=""/>
   </rdf:RDF>
</x:xmpmeta>
                                                                                                    
                                                                                                    
                                                                                                    
                                                                                                    
                                                                                                    
                                                                                                    
                                                                                                    
                                                                                                    
                                                                                                    
                                                                                                    
                                                                                                    
                                                                                                    
                                                                                                    
                                                                                                    
                                                                                                    
                                                                                                    
                                                                                                    
                                                                                                    
                                                                                                    
                                                                                                    
                           
<?xpacket end="w"?></metadata>
<defs>
    <style>
      .cls-1 {
        fill: #232323;
        fill-rule: evenodd;
        opacity: 0.07;
      }
    </style>
  </defs>
  <path class="cls-1" d="M924.192,1648.5a35.25,35.25,0,1,0,35.282,35.25A35.277,35.277,0,0,0,924.192,1648.5Zm105.848,0a35.25,35.25,0,1,0,35.28,35.25A35.285,35.285,0,0,0,1030.04,1648.5Zm52.92-176.25H890.142l-4.763-17.63c-3.628-15.83-13.567-17.62-18.237-17.62H835.988a17.625,17.625,0,1,0,0,35.25h17.64L888.91,1599.2c3.315,10.47,11.162,14.05,17.642,14.05H1047.68c7.3,0,13.78-3.72,17.64-13.77l30.25-91.98c2.69-8.53,5.03-13.22,5.03-17.63C1100.6,1478.17,1090.54,1472.25,1082.96,1472.25ZM1035.24,1578h-115.6l-19.605-70.5H1058.43Z" transform="translate(-818.344 -1452)"/>
</svg>
