<svg xmlns="http://www.w3.org/2000/svg" width="16" height="16" viewBox="0 0 16 16">
  <metadata><?xpacket begin="﻿" id="W5M0MpCehiHzreSzNTczkc9d"?>
<x:xmpmeta xmlns:x="adobe:ns:meta/" x:xmptk="Adobe XMP Core 5.6-c138 79.159824, 2016/09/14-01:09:01        ">
   <rdf:RDF xmlns:rdf="http://www.w3.org/1999/02/22-rdf-syntax-ns#">
      <rdf:Description rdf:about=""/>
   </rdf:RDF>
</x:xmpmeta>
                                                                                                    
                                                                                                    
                                                                                                    
                                                                                                    
                                                                                                    
                                                                                                    
                                                                                                    
                                                                                                    
                                                                                                    
                                                                                                    
                                                                                                    
                                                                                                    
                                                                                                    
                                                                                                    
                                                                                                    
                                                                                                    
                                                                                                    
                                                                                                    
                                                                                                    
                                                                                                    
                           
<?xpacket end="w"?></metadata>
<defs>
    <style>
      .cls-1 {
        fill: #fff;
        fill-rule: evenodd;
      }
    </style>
  </defs>
  <path class="cls-1" d="M193,642.5a2,2,0,1,0,2,2A2,2,0,0,0,193,642.5Zm6,0a2,2,0,1,0,2,2A2,2,0,0,0,199,642.5Zm3-10H191.07l-0.27-1a1.064,1.064,0,0,0-1.034-1H188a1,1,0,0,0,0,2h1l2,7.2a1.041,1.041,0,0,0,1,.8h8a1.038,1.038,0,0,0,1-.781l1.715-5.218a4.273,4.273,0,0,0,.285-1A1,1,0,0,0,202,632.5Zm-2.705,6h-6.553l-1.111-4h8.978Z" transform="translate(-187 -630.5)"/>
</svg>
